<?xml version="1.0" encoding="UTF-8"?>
<svg version="1.1" viewBox="0 0 2000 2000" width="500" height="500" xmlns="http://www.w3.org/2000/svg">
<path transform="translate(0)" d="m0 0h2e3v2e3h-2e3z" fill="#17191A"/>
<path transform="translate(858,240)" d="m0 0h120l1 2-1 233-3 1-45 2-42 4-32 5-34 7-30 8-40 13-26 10-24 11-27 13-18 10-22 14-12 8-16 11-12 9-14 11-14 12-13 12-12 11-25 25-7 8-12 13-13 17-10 13-13 18-9 13-10 15-15 26-15 28-15 32-10 26-12 36-9 35-6 29-5 36-3 33-1 22v32l1 27 4 41 6 37 9 39 9 31 10 29 12 29 12 26 10 19 14 25 10 16 11 16 14 19 13 17 13 16 6 7v2h2l7 8 40 40 11 9 14 12 14 11 17 13 27 18 11 6 17 10 14 8 16 8 30 14 24 10 25 9 30 9 30 7 33 6 29 4 26 2 53 2 1 1v78l-1 1-16 1h-19l-35-2-43-5-41-7-44-10-7-1-4 8-12 21-12 20-8 12-9 8-8 3h-181l-7-1-1-4 14-24 15-26 12-20 14-24 16-27 8-14-1-4-16-9-10-7-14-10-12-9-14-11-12-9-13-11-11-9-17-16-8-7v-2l-4-2-14-15-21-21-7-8-12-14-11-14-10-13-13-19-7-10-11-17-12-21-13-24-12-24-13-31-9-24-10-30-8-28-8-34-8-44-5-38-3-34-1-32v-22l1-29 4-42 6-38 8-36 7-27 10-32 12-31 10-24 13-28 15-28 16-28 22-33 11-15 14-19 11-14 13-16 1-3-9-10-7-8-10-12-8 6-12 10-11 9-13 11-11 9-13 11-10 8-14 12-4 3-4-1-12-16-12-21-10-25-5-19-4-30v-17l2-19 4-22 4-16 8-21 9-19 8-12 11-14 11-12 13-11 15-10 18-10 17-8 23-7 21-4 17-2h27l24 3 15 4 16 6 23 11 18 12 10 8 14 12 11 11-1 5-11 9-11 10-11 9-14 12-11 9-15 13-13 11-5 4 2 5 11 14 1 3h2l4 5 5-2 19-14 17-12 18-11 21-13 32-17 19-9 15-7 26-11 37-13 34-10 25-6 33-7 46-7h4v-57h-11l-23-2v-98z" fill="#FD9301"/>
<path transform="translate(948,533)" d="m0 0h21l6 3 3 3 1 3v9l-2 9-1 1-7 1-33 2-38 4-27 4-38 8-29 8-26 9-29 12-25 12-21 11-22 13-22 15-12 9-17 14-10 9-8 7-8 8-8 7-11 11-2 3h-2l-2 4-8 8-9 11-8 10-10 13-13 18-11 16-8 13-12 21-12 23-10 21-11 29-11 34-7 29-5 26-4 31-2 22-1 27v13l2 37 4 35 4 24 7 29 7 25 8 24 11 27 16 33 11 21 12 20 13 20 14 19 11 14 13 15 12 14 25 25 8 7 12 11 10 8 13 10 19 14 21 14 35 19 17 9 23 10 37 14 28 8 36 8 25 4 37 4 44 1 4 2 3 8v12l-5 4-6 2h-20l-47-3-35-5-29-6-26-7-38-12-16-6-33-15-25-12-22-13-19-12-16-11-16-12-14-11-13-11-13-12-7-7-8-7-7-7-7-8-9-10-9-11-9-10-8-11-10-13-12-17-8-13-13-22-12-23-8-16-11-25-9-24-6-18-7-24-5-20-4-20-4-25-4-38-1-24v-51l2-25 5-36 7-34 8-30 11-33 8-20 12-28 10-19 7-14 13-21 11-17 13-19 10-13 8-10 12-14 7-8 11-12 23-23 8-7 13-11 14-11 13-10 23-16 19-12 20-12 20-11 31-14 26-10 33-11 34-9 34-7 21-3z" fill="#E4A943"/>
<path transform="translate(797,1044)" d="m0 0h47l15 1 3 16 7 54 6 43 1 5h2v-11l12-90 3-17 2-1h60l1 1v199l-1 4h-37v-111l1-27-1-3-4 26-14 86-5 28-1 1h-35l-2-7-9-52-11-65-2-12v-6h-2l1 22v119l-1 1h-36l-1-203z" fill="#FD9301"/>
<path transform="translate(1431,712)" d="m0 0 36 1 9 100 1 21h2l1-15 2-28 7-78 2-1h21l15 1 1 2 8 96 1 18 1 5 2-16 6-76 3-29h40v10l-21 189-2 4h-47l-1-1-7-67-1-25h-2l-1 17-8 72-1 3-2 1h-47l-1-3-5-47-13-120-3-29v-4z" fill="#FD9301"/>
<path transform="translate(1201,712)" d="m0 0h55l16 2 10 4 10 9 6 12 2 9 1 9v115l-3 15-7 14-5 6-9 5-8 3-7 1h-61l-1-203z" fill="#FD9301"/>
<path transform="translate(799,711)" d="m0 0h24l10 3 8 4 10 9 7 14 2 9 1 11v105l-2 15-4 12-7 10-7 7-13 6-10 2h-16l-12-3-10-5-7-6-7-11-5-17-1-11v-112l3-12 4-9 6-8 9-7 8-4z" fill="#FD9301"/>
<path transform="translate(1355,711)" d="m0 0h24l10 3 11 6 8 9 5 10 3 13 1 14v98l-2 16-4 12-6 10-9 8-12 6-10 2h-16l-12-3-11-6-6-5-7-12-4-11-2-12v-113l2-12 4-11 8-10 8-6 8-4z" fill="#FD9301"/>
<path transform="translate(989,712)" d="m0 0h40l2 1 6 28 6 34 5 23 1 6h2l-1-4-1-25v-62l1-1h38l1 1v202l-2 1h-38l-1-1-7-37-8-40-3-19-1 6v90l-3 1h-37l-1-195z" fill="#FD9301"/>
<path transform="translate(1607,712)" d="m0 0h22l15 1 6 29 6 32 6 30v-91h40v202l-2 1h-37l-2-5-12-57-6-33-1-2v96l-2 1h-38v-203z" fill="#FD9301"/>
<path transform="translate(1072,1044)" d="m0 0h65l11 2 10 5 6 7 4 9 3 15 1 12v16l-3 14-4 8-8 7-4 4 6 2 7 8 2 6 1 9v59l-1 21h-39l-1-2-1-88-8-2h-5l-1 91-2 1h-39z" fill="#FD9301"/>
<path transform="translate(467,166)" d="m0 0 25 1 9 2 6 4 3 4v7l-5 6-12 6-8 2h-11l-11-1-32 1-25 3-26 5-23 6-26 9-21 9-17 8-24 14-15 10-15 11-13 11-11 9-12 12h-2l-2 4h-2l-2 4-10 11-9 11-12 16-10 15-13 22-13 26-11 29-12 36-6 10-4 3h-9l-5-3-3-6-1-4v-7l7-28 10-30 9-20 9-19 13-22 11-16 10-13 13-16 11-12 7-8 19-19 8-7 13-11 19-14 13-9 18-11 20-11 27-12 36-12 24-6 22-4 21-3 24-2z" fill="#E4A943"/>
<path transform="translate(879,712)" d="m0 0h27l8 1 1 101v50l2 12 3 3h8l3-1 2-10 1-155 5-1h33l2 1v151l-2 18-5 14-6 8-8 7-11 5-9 2h-19l-13-4-9-5-6-5-5-8-4-11-2-10-1-13v-149z" fill="#FD9301"/>
<path transform="translate(687,711)" d="m0 0h23l13 4 10 6 8 9 5 11 2 9 1 25v17l-1 1-9 1h-31l-1-36-2-8-9-1-3 1-3 6-1 77v27l1 13 3 5 1 1h8l3-3 2-8 1-40h40l1 1v44l-2 13-4 10-7 9-7 6-12 5-11 2h-17l-13-4-8-4-9-8-6-11-4-13-1-12v-101l2-17 4-12 6-10 7-7 12-6z" fill="#FD9301"/>
<path transform="translate(452,270)" d="m0 0 14 1 54 8 10 3 5 4 1 2v8l-4 6-10 5-3 1h-7l-29-5-25-1-33 3-23 4-22 6-21 8-17 8-24 14-13 10-14 12-13 12-9 10-11 14-10 14-13 23-10 24-7 21-5 22-2 13-1 12-9 11-7 7-4-2-8-10-1-2 1-16 5-31 6-25 6-18 8-18 12-23 8-12 10-13 9-11 12-13 5-6 8-7 9-8 20-15 24-14 15-8 25-11 21-7 23-5 19-3z" fill="#E4A943"/>
<path transform="translate(975,1044)" d="m0 0h80v39l-10 1-29 1v38l37 1 1 1v36l-13 1h-16l-9 1-1 45h41l2 2v37l-3 1h-81l-1-201z" fill="#FD9301"/>
<path transform="translate(1100,712)" d="m0 0h88l1 1v38l-24 1v163l-2 1h-38l-1-2v-160l1-2h-25z" fill="#FD9301"/>
<path transform="translate(646,1044)" d="m0 0h85l1 1v38l-24 1v163l-1 1h-39l-1-165-23 1-1-12 1-27z" fill="#FE9301"/>
<path transform="translate(742,1044)" d="m0 0h38l2 2-1 201-2 1h-37z" fill="#FE9301"/>
<path transform="translate(1366,747)" d="m0 0 6 2 3 5 1 4v109l-2 8-3 5h-9l-4-4-2-11v-105l3-8 4-4z" fill="#17191A"/>
<path transform="translate(808,748)" d="m0 0h6l4 4 2 9v104l-2 11-4 4h-8l-4-4-2-11v-104l2-7 4-5z" fill="#17191A"/>
<path transform="translate(1243,748)" d="m0 0h10l5 3 2 5v116l-2 5-7 3h-8l-1-1v-130z" fill="#17191A"/>
<path transform="translate(646,1364)" d="m0 0h23l8 3 4 5 1 9-6 9 7 8v8l-4 6-6 3-5 1h-20l-2-3z" fill="#ECB95A"/>
<path transform="translate(824,1364)" d="m0 0 6 1 8 16 11 23 6-12 11-24 3-4 6 1 1 50-1 1h-6l-1-1-1-33-14 32-2 2-4-1-5-8-11-24v-2h-2l1 2v31l-1 2h-6l-1-3v-40l1-8z" fill="#ECB95A"/>
<path transform="translate(1120,1364)" d="m0 0h5l5 10 11 30 3 9v3h-6l-5-10-1-1h-20l-3 5-2 5-1 1h-6l1-6 8-24 5-13 5-8z" fill="#ECB95A"/>
<path transform="translate(1029,1364)" d="m0 0h6l1 5v17h14l11 1v-22l1-1h6l1 1v50l-1 1h-5l-2-7v-16h-25v22l-1 1h-6l-1-1v-50z" fill="#ECB95A"/>
<path transform="translate(965,1364)" d="m0 0h15l8 4 5 5 2 3v4l-7-1-8-7-3-1h-11l-8 5-3 6-1 10 2 8 2 5 4 2 5 2h10l8-5 5-4 5 1-1 4-6 7-10 4h-12l-8-3-7-6-4-7-1-4v-12l3-8 6-7z" fill="#ECB95A"/>
<path transform="translate(1115,1082)" d="m0 0h11l4 3 2 8v12l-2 10-3 4-4 1h-9l-1-1v-35z" fill="#17191A"/>
<path transform="translate(746,1363)" d="m0 0 4 1-1 5-13 25-1 3-1 19h-6l-1-1-1-19-8-16-7-15 1-1h6l9 17 2 7h3l2-6 9-17z" fill="#ECB95A"/>
<path transform="translate(1175,1364)" d="m0 0h6l1 1v45h17l1 5-1 1h-23l-2-3v-48z" fill="#ECB95A"/>
<path transform="translate(909,1364)" d="m0 0h6l1 1v50l-1 1h-6l-1-3v-48z" fill="#ECB95A"/>
<path transform="translate(655,1392)" d="m0 0h12l6 3 3 4-1 7-4 3-3 1h-13l-1-1v-16z" fill="#17191A"/>
<path transform="translate(655,1370)" d="m0 0h12l5 2 2 3v6l-5 5h-15v-15z" fill="#17191A"/>
<path transform="translate(1121,1376)" d="m0 0 3 1 6 18v4h-13l-4-2 7-19z" fill="#17191A"/>
<path transform="translate(272,214)" d="m0 0 4 1-18 10-15 10-8 6-11 8-5 4h-2v-2l19-14 13-9 18-11z" fill="#EAB453"/>
<path transform="translate(214,254)" d="m0 0 2 1-10 9-8 7-4 2 2-4 8-7z" fill="#E9B351"/>
<path transform="translate(207,297)" d="m0 0h2l-1 3-5 5h-2l-2 4h-2l2-4z" fill="#EAB554"/>
</svg>
